<?xml version="1.0" standalone="no"?>
<!DOCTYPE svg PUBLIC "-//W3C//DTD SVG 20010904//EN"
 "http://www.w3.org/TR/2001/REC-SVG-20010904/DTD/svg10.dtd">
<svg version="1.0" xmlns="http://www.w3.org/2000/svg"
 width="500.000000pt" height="281.000000pt" viewBox="0 0 500.000000 281.000000"
 preserveAspectRatio="xMidYMid meet">

<g transform="translate(0.000000,281.000000) scale(0.100000,-0.100000)"
fill="#000000" stroke="none">
<path d="M1300 2384 c-144 -44 -220 -74 -340 -134 -319 -160 -570 -407 -715
-705 -48 -97 -102 -251 -92 -261 3 -3 63 4 134 17 107 19 163 23 338 23 184 0
220 -3 288 -22 209 -58 352 -193 373 -353 l6 -47 72 33 c330 152 679 31 997
-345 26 -30 69 -88 97 -128 l50 -73 47 73 c152 235 328 405 507 488 197 92
432 84 625 -20 41 -22 76 -40 77 -40 2 0 6 31 8 68 13 172 129 292 338 349
103 28 453 25 619 -5 68 -13 126 -21 128 -18 6 6 -14 107 -38 186 -101 333
-416 640 -859 836 -104 46 -293 114 -316 114 -7 0 2 -22 21 -50 68 -101 100
-237 75 -316 -52 -159 -257 -268 -603 -319 -107 -15 -327 -32 -327 -24 0 11
-90 483 -93 485 -2 2 -25 -57 -52 -132 l-50 -134 -94 2 -93 3 -53 133 c-29 74
-54 128 -57 120 -3 -7 -24 -113 -48 -235 -23 -121 -46 -227 -50 -233 -17 -27
-440 44 -615 102 -119 40 -189 76 -249 129 -125 110 -114 250 31 400 78 82 75
83 -87 33z"/>
</g>
</svg>
